<?xml version="1.0" encoding="UTF-8" standalone="no"?>
<svg
   xmlns:dc="http://purl.org/dc/elements/1.1/"
   xmlns:cc="http://creativecommons.org/ns#"
   xmlns:rdf="http://www.w3.org/1999/02/22-rdf-syntax-ns#"
   xmlns:svg="http://www.w3.org/2000/svg"
   xmlns="http://www.w3.org/2000/svg"
   xmlns:sodipodi="http://sodipodi.sourceforge.net/DTD/sodipodi-0.dtd"
   xmlns:inkscape="http://www.inkscape.org/namespaces/inkscape"
   width="4800"
   height="1100"
   viewBox="0 0 1270 291.04167"
   version="1.1"
   id="svg8"
   inkscape:version="1.0.2 (1.0.2+r75+1)"
   sodipodi:docname="pgpd-logo.svg">
  <defs
     id="defs2" />
  <sodipodi:namedview
     id="base"
     pagecolor="#ffffff"
     bordercolor="#666666"
     borderopacity="1.0"
     inkscape:pageopacity="0.0"
     inkscape:pageshadow="2"
     inkscape:zoom="0.14346183"
     inkscape:cx="2302.7932"
     inkscape:cy="1165.5806"
     inkscape:document-units="px"
     inkscape:current-layer="layer1"
     inkscape:document-rotation="0"
     showgrid="false"
     units="px"
     lock-margins="true"
     fit-margin-top="25"
     fit-margin-left="25"
     fit-margin-right="25"
     fit-margin-bottom="25"
     inkscape:window-width="1875"
     inkscape:window-height="1035"
     inkscape:window-x="45"
     inkscape:window-y="45"
     inkscape:window-maximized="1">
    <inkscape:grid
       type="axonomgrid"
       id="grid855"
       originx="-107.76166"
       originy="-24.353429" />
  </sodipodi:namedview>
  <metadata
     id="metadata5">
    <rdf:RDF>
      <cc:Work
         rdf:about="">
        <dc:format>image/svg+xml</dc:format>
        <dc:type
           rdf:resource="http://purl.org/dc/dcmitype/StillImage" />
        <dc:title></dc:title>
      </cc:Work>
    </rdf:RDF>
  </metadata>
  <g
     inkscape:label="Layer 1"
     inkscape:groupmode="layer"
     id="layer1"
     transform="translate(-107.76166,-24.353427)">
    <g
       id="g923"
       transform="translate(6.8379395,8.8106226)">
      <g
         id="g2558"
         transform="translate(551.85137,-213.9553)">
        <path
           id="path1414"
           style="fill:#b04021;fill-opacity:1;stroke:#ffffff;stroke-width:0.132292;stroke-linecap:butt;stroke-linejoin:miter;stroke-miterlimit:4;stroke-dasharray:none;stroke-opacity:1"
           d="m -437.34283,252.5 c -3e-5,78.33329 2e-5,166.66692 -3e-5,245.0002 4.33014,2.49994 8.66026,4.99986 12.99041,7.4998 5e-5,-73.33324 0,-156.66683 2e-5,-230.00006 30.31091,17.49988 60.62194,34.99953 90.93245,52.50013 4.33015,-2.5001 8.66026,-5.0002 12.99041,-7.5003 -38.97098,-22.50012 -77.94212,-44.99991 -116.91326,-67.49977 z"
           sodipodi:nodetypes="ccccccc" />
        <path
           id="path1324"
           style="fill:#86341f;fill-opacity:1;stroke:#ffffff;stroke-width:0.132292;stroke-linecap:butt;stroke-linejoin:miter;stroke-miterlimit:4;stroke-dasharray:none;stroke-opacity:1"
           d="m -424.35243,244.99969 c -4.33014,2.5001 -8.66026,5.00021 -12.9904,7.50031 38.97137,22.49941 73.61206,42.5002 112.58323,65 -30.3108,17.50007 -56.29141,32.50025 -86.60236,50.00005 -3e-5,4.99999 -8e-5,9.99996 -1.1e-4,14.99995 38.97138,-22.49959 73.61209,-42.50013 112.58331,-65 -43.30131,-24.9999 -82.27254,-47.50008 -125.57367,-72.50031 z"
           sodipodi:nodetypes="ccccccc" />
        <g
           id="g2488"
           transform="translate(4.3301266,-137.49999)">
          <g
             id="g2430"
             transform="translate(3.3915572e-6,-14.00001)"
             style="stroke:#ffffff;stroke-width:0.132292;stroke-miterlimit:4;stroke-dasharray:none;stroke-opacity:1">
            <path
               style="font-variation-settings:normal;opacity:1;vector-effect:none;fill:#130754;fill-opacity:1;stroke:#ffffff;stroke-width:0.132292;stroke-linecap:butt;stroke-linejoin:miter;stroke-miterlimit:4;stroke-dasharray:none;stroke-dashoffset:0;stroke-opacity:1;stop-color:#000000;stop-opacity:1"
               d="m -376.72106,580.50001 v 17.99997 l 8.66026,5.00001 V 585.5 Z"
               id="path2378"
               sodipodi:nodetypes="ccccc" />
            <path
               style="font-variation-settings:normal;opacity:1;vector-effect:none;fill:#130754;fill-opacity:1;stroke:#ffffff;stroke-width:0.132292;stroke-linecap:butt;stroke-linejoin:miter;stroke-miterlimit:4;stroke-dasharray:none;stroke-dashoffset:0;stroke-opacity:1;stop-color:#000000;stop-opacity:1"
               d="m -368.06078,603.5 8.66024,-5.00001 -2e-5,-17.99998 -8.66024,4.99999 z"
               id="path2380"
               sodipodi:nodetypes="ccccc" />
            <path
               style="font-variation-settings:normal;opacity:1;vector-effect:none;fill:#130754;fill-opacity:1;stroke:#ffffff;stroke-width:0.132292;stroke-linecap:butt;stroke-linejoin:miter;stroke-miterlimit:4;stroke-dasharray:none;stroke-dashoffset:0;stroke-opacity:1;stop-color:#000000;stop-opacity:1"
               d="m -359.40056,580.50001 -8.66024,-5.00002 -8.66026,5.00002 8.66026,4.99999 z"
               id="path2382" />
            <path
               style="font-variation-settings:normal;opacity:1;vector-effect:none;fill:#ffca00;fill-opacity:1;stroke:#ffffff;stroke-width:0.132292;stroke-linecap:butt;stroke-linejoin:miter;stroke-miterlimit:4;stroke-dasharray:none;stroke-dashoffset:0;stroke-opacity:1;stop-color:#000000;stop-opacity:1"
               d="m -376.72105,562.50001 v 9.99998 l 8.66026,5.00001 v -10 z"
               id="path2354" />
            <path
               style="font-variation-settings:normal;opacity:1;vector-effect:none;fill:#ffca00;fill-opacity:1;stroke:#ffffff;stroke-width:0.132292;stroke-linecap:butt;stroke-linejoin:miter;stroke-miterlimit:4;stroke-dasharray:none;stroke-dashoffset:0;stroke-opacity:1;stop-color:#000000;stop-opacity:1"
               d="m -368.06079,577.5 8.66024,-5.00001 v -9.99998 l -8.66024,4.99999 z"
               id="path2362" />
            <path
               style="font-variation-settings:normal;opacity:1;vector-effect:none;fill:#ffca00;fill-opacity:1;stroke:#ffffff;stroke-width:0.132292;stroke-linecap:butt;stroke-linejoin:miter;stroke-miterlimit:4;stroke-dasharray:none;stroke-dashoffset:0;stroke-opacity:1;stop-color:#000000;stop-opacity:1"
               d="m -359.40055,562.50001 -8.66024,-5.00002 -8.66026,5.00002 8.66026,4.99999 z"
               id="path2370" />
            <path
               style="font-variation-settings:normal;opacity:1;vector-effect:none;fill:#130754;fill-opacity:1;stroke:#ffffff;stroke-width:0.132292;stroke-linecap:butt;stroke-linejoin:miter;stroke-miterlimit:4;stroke-dasharray:none;stroke-dashoffset:0;stroke-opacity:1;stop-color:#000000;stop-opacity:1"
               d="m -376.72106,536.50002 v 17.99997 l 8.66026,5.00001 v -17.99999 z"
               id="path2386"
               sodipodi:nodetypes="ccccc" />
            <path
               style="font-variation-settings:normal;opacity:1;vector-effect:none;fill:#130754;fill-opacity:1;stroke:#ffffff;stroke-width:0.132292;stroke-linecap:butt;stroke-linejoin:miter;stroke-miterlimit:4;stroke-dasharray:none;stroke-dashoffset:0;stroke-opacity:1;stop-color:#000000;stop-opacity:1"
               d="m -368.06078,559.50001 8.66024,-5.00001 -2e-5,-17.99998 -8.66024,4.99999 z"
               id="path2388"
               sodipodi:nodetypes="ccccc" />
            <path
               style="font-variation-settings:normal;opacity:1;vector-effect:none;fill:#130754;fill-opacity:1;stroke:#ffffff;stroke-width:0.132292;stroke-linecap:butt;stroke-linejoin:miter;stroke-miterlimit:4;stroke-dasharray:none;stroke-dashoffset:0;stroke-opacity:1;stop-color:#000000;stop-opacity:1"
               d="m -359.40056,536.50002 -8.66024,-5.00002 -8.66026,5.00002 8.66026,4.99999 z"
               id="path2390" />
          </g>
          <g
             id="g2419"
             style="stroke:#ffffff;stroke-width:0.132292;stroke-miterlimit:4;stroke-dasharray:none;stroke-opacity:1">
            <path
               style="font-variation-settings:normal;opacity:1;vector-effect:none;fill:#130754;fill-opacity:1;stroke:#ffffff;stroke-width:0.132292;stroke-linecap:butt;stroke-linejoin:miter;stroke-miterlimit:4;stroke-dasharray:none;stroke-dashoffset:0;stroke-opacity:1;stop-color:#000000;stop-opacity:1"
               d="m -381.05117,540 v 65 l -8.66026,4.99999 v -65 L -381.05117,540"
               id="path2392" />
            <path
               style="font-variation-settings:normal;opacity:1;vector-effect:none;fill:#130754;fill-opacity:1;stroke:#ffffff;stroke-width:0.132292;stroke-linecap:butt;stroke-linejoin:miter;stroke-miterlimit:4;stroke-dasharray:none;stroke-dashoffset:0;stroke-opacity:1;stop-color:#000000;stop-opacity:1"
               d="M -389.71143,609.99999 -398.37169,605 v -65 l 8.66026,4.99999 v 65"
               id="path2400" />
            <path
               style="font-variation-settings:normal;opacity:1;vector-effect:none;fill:#130754;fill-opacity:1;stroke:#ffffff;stroke-width:0.132292;stroke-linecap:butt;stroke-linejoin:miter;stroke-miterlimit:4;stroke-dasharray:none;stroke-dashoffset:0;stroke-opacity:1;stop-color:#000000;stop-opacity:1"
               d="m -398.37169,540 8.66026,-5.00002 8.66026,5.00002 -8.66026,4.99999 z"
               id="path2408" />
          </g>
          <g
             id="g2450"
             transform="translate(21.650633,-8.49999)"
             style="stroke:#ffffff;stroke-width:0.132292;stroke-miterlimit:4;stroke-dasharray:none;stroke-opacity:1">
            <path
               style="font-variation-settings:normal;opacity:1;vector-effect:none;fill:#130754;fill-opacity:1;stroke:#ffffff;stroke-width:0.132292;stroke-linecap:butt;stroke-linejoin:miter;stroke-miterlimit:4;stroke-dasharray:none;stroke-dashoffset:0;stroke-opacity:1;stop-color:#000000;stop-opacity:1"
               d="m -376.72106,580.50001 v 17.99997 l 8.66026,5.00001 V 585.5 Z"
               id="path2432"
               sodipodi:nodetypes="ccccc" />
            <path
               style="font-variation-settings:normal;opacity:1;vector-effect:none;fill:#130754;fill-opacity:1;stroke:#ffffff;stroke-width:0.132292;stroke-linecap:butt;stroke-linejoin:miter;stroke-miterlimit:4;stroke-dasharray:none;stroke-dashoffset:0;stroke-opacity:1;stop-color:#000000;stop-opacity:1"
               d="m -368.06078,603.5 8.66024,-5.00001 -2e-5,-17.99998 -8.66024,4.99999 z"
               id="path2434"
               sodipodi:nodetypes="ccccc" />
            <path
               style="font-variation-settings:normal;opacity:1;vector-effect:none;fill:#130754;fill-opacity:1;stroke:#ffffff;stroke-width:0.132292;stroke-linecap:butt;stroke-linejoin:miter;stroke-miterlimit:4;stroke-dasharray:none;stroke-dashoffset:0;stroke-opacity:1;stop-color:#000000;stop-opacity:1"
               d="m -359.40056,580.50001 -8.66024,-5.00002 -8.66026,5.00002 8.66026,4.99999 z"
               id="path2436" />
            <path
               style="font-variation-settings:normal;opacity:1;vector-effect:none;fill:#e70488;fill-opacity:1;stroke:#ffffff;stroke-width:0.132292;stroke-linecap:butt;stroke-linejoin:miter;stroke-miterlimit:4;stroke-dasharray:none;stroke-dashoffset:0;stroke-opacity:1;stop-color:#000000;stop-opacity:1"
               d="m -376.72105,562.50001 v 9.99998 l 8.66026,5.00001 v -10 z"
               id="path2438" />
            <path
               style="font-variation-settings:normal;opacity:1;vector-effect:none;fill:#e70488;fill-opacity:1;stroke:#ffffff;stroke-width:0.132292;stroke-linecap:butt;stroke-linejoin:miter;stroke-miterlimit:4;stroke-dasharray:none;stroke-dashoffset:0;stroke-opacity:1;stop-color:#000000;stop-opacity:1"
               d="m -368.06079,577.5 8.66024,-5.00001 v -9.99998 l -8.66024,4.99999 z"
               id="path2440" />
            <path
               style="font-variation-settings:normal;opacity:1;vector-effect:none;fill:#e70488;fill-opacity:1;stroke:#ffffff;stroke-width:0.132292;stroke-linecap:butt;stroke-linejoin:miter;stroke-miterlimit:4;stroke-dasharray:none;stroke-dashoffset:0;stroke-opacity:1;stop-color:#000000;stop-opacity:1"
               d="m -359.40055,562.50001 -8.66024,-5.00002 -8.66026,5.00002 8.66026,4.99999 z"
               id="path2442" />
            <path
               style="font-variation-settings:normal;opacity:1;vector-effect:none;fill:#130754;fill-opacity:1;stroke:#ffffff;stroke-width:0.132292;stroke-linecap:butt;stroke-linejoin:miter;stroke-miterlimit:4;stroke-dasharray:none;stroke-dashoffset:0;stroke-opacity:1;stop-color:#000000;stop-opacity:1"
               d="m -376.72106,536.50002 v 17.99997 l 8.66026,5.00001 v -17.99999 z"
               id="path2444"
               sodipodi:nodetypes="ccccc" />
            <path
               style="font-variation-settings:normal;opacity:1;vector-effect:none;fill:#130754;fill-opacity:1;stroke:#ffffff;stroke-width:0.132292;stroke-linecap:butt;stroke-linejoin:miter;stroke-miterlimit:4;stroke-dasharray:none;stroke-dashoffset:0;stroke-opacity:1;stop-color:#000000;stop-opacity:1"
               d="m -368.06078,559.50001 8.66024,-5.00001 -2e-5,-17.99998 -8.66024,4.99999 z"
               id="path2446"
               sodipodi:nodetypes="ccccc" />
            <path
               style="font-variation-settings:normal;opacity:1;vector-effect:none;fill:#130754;fill-opacity:1;stroke:#ffffff;stroke-width:0.132292;stroke-linecap:butt;stroke-linejoin:miter;stroke-miterlimit:4;stroke-dasharray:none;stroke-dashoffset:0;stroke-opacity:1;stop-color:#000000;stop-opacity:1"
               d="m -359.40056,536.50002 -8.66024,-5.00002 -8.66026,5.00002 8.66026,4.99999 z"
               id="path2448" />
          </g>
          <g
             id="g2458"
             transform="translate(64.951904,-47.49999)"
             style="stroke:#ffffff;stroke-width:0.132292;stroke-miterlimit:4;stroke-dasharray:none;stroke-opacity:1">
            <path
               style="font-variation-settings:normal;opacity:1;vector-effect:none;fill:#130754;fill-opacity:1;stroke:#ffffff;stroke-width:0.132292;stroke-linecap:butt;stroke-linejoin:miter;stroke-miterlimit:4;stroke-dasharray:none;stroke-dashoffset:0;stroke-opacity:1;stop-color:#000000;stop-opacity:1"
               d="m -381.05117,540 v 65 l -8.66026,4.99999 v -65 L -381.05117,540"
               id="path2452" />
            <path
               style="font-variation-settings:normal;opacity:1;vector-effect:none;fill:#130754;fill-opacity:1;stroke:#ffffff;stroke-width:0.132292;stroke-linecap:butt;stroke-linejoin:miter;stroke-miterlimit:4;stroke-dasharray:none;stroke-dashoffset:0;stroke-opacity:1;stop-color:#000000;stop-opacity:1"
               d="M -389.71143,609.99999 -398.37169,605 v -65 l 8.66026,4.99999 v 65"
               id="path2454" />
            <path
               style="font-variation-settings:normal;opacity:1;vector-effect:none;fill:#130754;fill-opacity:1;stroke:#ffffff;stroke-width:0.132292;stroke-linecap:butt;stroke-linejoin:miter;stroke-miterlimit:4;stroke-dasharray:none;stroke-dashoffset:0;stroke-opacity:1;stop-color:#000000;stop-opacity:1"
               d="m -398.37169,540 8.66026,-5.00002 8.66026,5.00002 -8.66026,4.99999 z"
               id="path2456" />
          </g>
        </g>
        <path
           style="font-variation-settings:normal;opacity:1;vector-effect:none;fill:#682719;fill-opacity:1;stroke:#ffffff;stroke-width:0.132292;stroke-linecap:butt;stroke-linejoin:miter;stroke-miterlimit:4;stroke-dasharray:none;stroke-dashoffset:0;stroke-opacity:1;stop-color:#000000;stop-opacity:1"
           d="m -424.35245,274.99999 12.99038,7.50001 v 100 l 112.58331,-65 v 15 l -112.58331,64.99999 V 497.5 l -12.99038,7.49999 z"
           id="path2491"
           sodipodi:nodetypes="ccccccccc" />
      </g>
      <g
         aria-label="pygeos pandas"
         id="text2580"
         style="font-size:144.068px;line-height:1.25;font-family:sans-serif;-inkscape-font-specification:sans-serif;letter-spacing:0px;word-spacing:0px;fill:#b04021;fill-opacity:1;stroke-width:0.264583">
        <path
           d="m 298.97945,216.28162 v 41.78535 H 285.9655 V 149.31252 h 13.01395 v 11.95877 q 4.08005,-7.03457 10.27047,-10.41117 6.26077,-3.44694 14.91329,-3.44694 14.35052,0 23.28443,11.39601 9.00425,11.396 9.00425,29.96726 0,18.57127 -9.00425,29.96727 -8.93391,11.39601 -23.28443,11.39601 -8.65252,0 -14.91329,-3.3766 -6.19042,-3.44694 -10.27047,-10.48151 z m 44.03641,-27.50517 q 0,-14.28017 -5.90904,-22.36993 -5.83869,-8.1601 -16.10917,-8.1601 -10.27047,0 -16.17951,8.1601 -5.83869,8.08976 -5.83869,22.36993 0,14.28018 5.83869,22.44028 5.90904,8.08976 16.17951,8.08976 10.27048,0 16.10917,-8.08976 5.90904,-8.1601 5.90904,-22.44028 z"
           style="fill:#b04021;fill-opacity:1;stroke-width:0.264583"
           id="path866" />
        <path
           d="m 410.68842,235.41565 q -5.48696,14.06914 -10.69255,18.36023 -5.20558,4.29109 -13.92844,4.29109 h -10.34082 v -10.83324 h 7.59733 q 5.34628,0 8.3008,-2.53244 2.95452,-2.53245 6.54215,-11.95877 l 2.3214,-5.90904 -31.8666,-77.52096 h 13.71741 l 24.621,61.62283 24.62099,-61.62283 h 13.71742 z"
           style="fill:#b04021;fill-opacity:1;stroke-width:0.264583"
           id="path868" />
        <path
           d="m 515.0111,187.79161 q 0,-14.06914 -5.83869,-21.80716 -5.76835,-7.73803 -16.24986,-7.73803 -10.41116,0 -16.24986,7.73803 -5.76834,7.73802 -5.76834,21.80716 0,13.9988 5.76834,21.73683 5.8387,7.73802 16.24986,7.73802 10.48151,0 16.24986,-7.73802 5.83869,-7.73803 5.83869,-21.73683 z m 12.94361,30.53004 q 0,20.11887 -8.9339,29.89692 -8.93391,9.8484 -27.36448,9.8484 -6.82353,0 -12.87326,-1.05519 -6.04974,-0.98484 -11.74774,-3.09521 v -12.59188 q 5.698,3.09521 11.25532,4.57247 5.55731,1.47726 11.32565,1.47726 12.73257,0 19.06369,-6.68284 6.33111,-6.61249 6.33111,-20.04852 v -6.40146 q -4.0097,6.96422 -10.27047,10.41116 -6.26077,3.44694 -14.98364,3.44694 -14.49121,0 -23.35477,-11.04427 -8.86356,-11.04428 -8.86356,-29.26382 0,-18.28988 8.86356,-29.33415 8.86356,-11.04428 23.35477,-11.04428 8.72287,0 14.98364,3.44694 6.26077,3.44694 10.27047,10.41117 v -11.95877 h 12.94361 z"
           style="fill:#b04021;fill-opacity:1;stroke-width:0.264583"
           id="path870" />
        <path
           d="m 622.0069,185.47021 v 6.33111 h -59.51246 q 0.84415,13.36568 8.01941,20.40025 7.24561,6.96423 20.11887,6.96423 7.45664,0 14.42087,-1.82899 7.03457,-1.82899 13.92845,-5.48697 V 224.09 q -6.96423,2.95452 -14.28018,4.50212 -7.31595,1.54761 -14.84294,1.54761 -18.85265,0 -29.89693,-10.97393 -10.97392,-10.97393 -10.97392,-29.68589 0,-19.34507 10.41116,-30.67072 10.48151,-11.39601 28.20862,-11.39601 15.89813,0 25.11342,10.27048 9.28563,10.20012 9.28563,27.78655 z m -12.94361,-3.79867 q -0.14069,-10.6222 -5.97938,-16.95331 -5.76835,-6.33112 -15.33536,-6.33112 -10.83324,0 -17.37539,6.12008 -6.47181,6.12007 -7.45665,17.23469 z"
           style="fill:#b04021;fill-opacity:1;stroke-width:0.264583"
           id="path872" />
        <path
           d="m 673.78134,158.38711 q -10.41116,0 -16.46089,8.1601 -6.04973,8.08976 -6.04973,22.22924 0,14.13949 5.97939,22.29959 6.04973,8.08976 16.53123,8.08976 10.34082,0 16.39055,-8.1601 6.04973,-8.16011 6.04973,-22.22925 0,-13.99879 -6.04973,-22.15889 -6.04973,-8.23045 -16.39055,-8.23045 z m 0,-10.97393 q 16.88297,0 26.52033,10.97393 9.63736,10.97393 9.63736,30.38934 0,19.34507 -9.63736,30.38935 -9.63736,10.97393 -26.52033,10.97393 -16.95331,0 -26.59067,-10.97393 -9.56701,-11.04428 -9.56701,-30.38935 0,-19.41541 9.56701,-30.38934 9.63736,-10.97393 26.59067,-10.97393 z"
           style="fill:#b04021;fill-opacity:1;stroke-width:0.264583"
           id="path874" />
        <path
           d="m 781.6213,151.63393 v 12.24015 q -5.48697,-2.81383 -11.396,-4.22074 -5.90904,-1.40692 -12.24016,-1.40692 -9.63736,0 -14.49121,2.95452 -4.78351,2.95452 -4.78351,8.86356 0,4.50212 3.44694,7.10491 3.44694,2.53245 13.8581,4.85386 l 4.43178,0.98484 q 13.78776,2.95452 19.55611,8.37114 5.83869,5.34627 5.83869,14.98363 0,10.97393 -8.72287,17.37539 -8.65252,6.40146 -23.84719,6.40146 -6.33111,0 -13.22499,-1.26623 -6.82353,-1.19587 -14.42087,-3.65797 v -13.36569 q 7.17526,3.72833 14.13949,5.62766 6.96422,1.82899 13.78775,1.82899 9.14495,0 14.06914,-3.09521 4.9242,-3.16556 4.9242,-8.86356 0,-5.27593 -3.58763,-8.08976 -3.51728,-2.81382 -15.5464,-5.41661 l -4.50212,-1.05519 q -12.02912,-2.53245 -17.37539,-7.73803 -5.34627,-5.27592 -5.34627,-14.42087 0,-11.11462 7.87872,-17.16435 7.87871,-6.04973 22.36993,-6.04973 7.17526,0 13.50637,1.05519 6.33112,1.05518 11.67739,3.16556 z"
           style="fill:#b04021;fill-opacity:1;stroke-width:0.264583"
           id="path876" />
        <path
           d="m 864.76992,216.28162 v 41.78535 H 851.75596 V 149.31252 h 13.01396 v 11.95877 q 4.08005,-7.03457 10.27047,-10.41117 6.26077,-3.44694 14.91329,-3.44694 14.35052,0 23.28442,11.39601 9.00425,11.396 9.00425,29.96726 0,18.57127 -9.00425,29.96727 -8.9339,11.39601 -23.28442,11.39601 -8.65252,0 -14.91329,-3.3766 -6.19042,-3.44694 -10.27047,-10.48151 z m 44.0364,-27.50517 q 0,-14.28017 -5.90903,-22.36993 -5.8387,-8.1601 -16.10917,-8.1601 -10.27047,0 -16.17951,8.1601 -5.83869,8.08976 -5.83869,22.36993 0,14.28018 5.83869,22.44028 5.90904,8.08976 16.17951,8.08976 10.27047,0 16.10917,-8.08976 5.90903,-8.1601 5.90903,-22.44028 z"
           style="fill:#b04021;fill-opacity:1;stroke-width:0.264583"
           id="path878" />
        <path
           d="m 979.50374,188.49507 q -15.68709,0 -21.73682,3.58763 -6.04973,3.58763 -6.04973,12.24015 0,6.89388 4.50213,10.97393 4.57247,4.00971 12.38084,4.00971 10.76289,0 17.2347,-7.59734 6.54215,-7.66768 6.54215,-20.3299 v -2.88418 z m 25.81686,-5.34627 v 44.9509 h -12.94359 v -11.95877 q -4.43178,7.17526 -11.04428,10.6222 -6.61249,3.3766 -16.17951,3.3766 -12.09946,0 -19.27472,-6.75319 -7.10492,-6.82353 -7.10492,-18.21954 0,-13.29533 8.86356,-20.04852 8.93391,-6.75319 26.59068,-6.75319 h 18.14919 v -1.26622 q 0,-8.93391 -5.90904,-13.78776 -5.83869,-4.9242 -16.46089,-4.9242 -6.75319,0 -13.15465,1.61795 -6.40146,1.61795 -12.3105,4.85386 v -11.95877 q 7.10492,-2.74348 13.78776,-4.08005 6.68284,-1.40692 13.01395,-1.40692 17.09401,0 25.53549,8.86356 8.44147,8.86356 8.44147,26.87206 z"
           style="fill:#b04021;fill-opacity:1;stroke-width:0.264583"
           id="path880" />
        <path
           d="m 1097.4735,180.54601 v 47.55369 h -12.9436 v -47.13162 q 0,-11.18496 -4.3614,-16.74227 -4.3615,-5.55731 -13.0843,-5.55731 -10.4815,0 -16.5313,6.68284 -6.0497,6.68284 -6.0497,18.21953 v 44.52883 h -13.014 v -78.78718 h 13.014 v 12.24015 q 4.6428,-7.10492 10.9036,-10.6222 6.3311,-3.51729 14.5615,-3.51729 13.5768,0 20.541,8.44149 6.9642,8.37114 6.9642,24.69134 z"
           style="fill:#b04021;fill-opacity:1;stroke-width:0.264583"
           id="path882" />
        <path
           d="m 1175.1352,161.27129 v -42.6295 h 12.9436 V 228.0997 h -12.9436 v -11.81808 q -4.0801,7.03457 -10.3409,10.48151 -6.1904,3.3766 -14.9133,3.3766 -14.2801,0 -23.2844,-11.39601 -8.9339,-11.396 -8.9339,-29.96727 0,-18.57126 8.9339,-29.96726 9.0043,-11.39601 23.2844,-11.39601 8.7229,0 14.9133,3.44694 6.2608,3.3766 10.3409,10.41117 z m -44.1068,27.50516 q 0,14.28018 5.8387,22.44028 5.909,8.08976 16.1795,8.08976 10.2705,0 16.1795,-8.08976 5.9091,-8.1601 5.9091,-22.44028 0,-14.28017 -5.9091,-22.36993 -5.909,-8.1601 -16.1795,-8.1601 -10.2705,0 -16.1795,8.1601 -5.8387,8.08976 -5.8387,22.36993 z"
           style="fill:#b04021;fill-opacity:1;stroke-width:0.264583"
           id="path884" />
        <path
           d="m 1250.5457,188.49507 q -15.6871,0 -21.7368,3.58763 -6.0497,3.58763 -6.0497,12.24015 0,6.89388 4.5021,10.97393 4.5725,4.00971 12.3809,4.00971 10.7628,0 17.2346,-7.59734 6.5422,-7.66768 6.5422,-20.3299 v -2.88418 z m 25.8169,-5.34627 v 44.9509 h -12.9436 v -11.95877 q -4.4318,7.17526 -11.0443,10.6222 -6.6125,3.3766 -16.1795,3.3766 -12.0994,0 -19.2747,-6.75319 -7.1049,-6.82353 -7.1049,-18.21954 0,-13.29533 8.8635,-20.04852 8.9339,-6.75319 26.5907,-6.75319 h 18.1492 v -1.26622 q 0,-8.93391 -5.909,-13.78776 -5.8387,-4.9242 -16.4609,-4.9242 -6.7532,0 -13.1547,1.61795 -6.4014,1.61795 -12.3105,4.85386 v -11.95877 q 7.1049,-2.74348 13.7878,-4.08005 6.6828,-1.40692 13.0139,-1.40692 17.094,0 25.5355,8.86356 8.4415,8.86356 8.4415,26.87206 z"
           style="fill:#b04021;fill-opacity:1;stroke-width:0.264583"
           id="path886" />
        <path
           d="m 1353.2504,151.63393 v 12.24015 q -5.4869,-2.81383 -11.396,-4.22074 -5.909,-1.40692 -12.2401,-1.40692 -9.6374,0 -14.4913,2.95452 -4.7835,2.95452 -4.7835,8.86356 0,4.50212 3.447,7.10491 3.4469,2.53245 13.8581,4.85386 l 4.4318,0.98484 q 13.7877,2.95452 19.5561,8.37114 5.8387,5.34627 5.8387,14.98363 0,10.97393 -8.7229,17.37539 -8.6525,6.40146 -23.8472,6.40146 -6.3311,0 -13.225,-1.26623 -6.8235,-1.19587 -14.4209,-3.65797 v -13.36569 q 7.1753,3.72833 14.1395,5.62766 6.9643,1.82899 13.7878,1.82899 9.1449,0 14.0691,-3.09521 4.9242,-3.16556 4.9242,-8.86356 0,-5.27593 -3.5876,-8.08976 -3.5173,-2.81382 -15.5464,-5.41661 l -4.5021,-1.05519 q -12.0291,-2.53245 -17.3754,-7.73803 -5.3463,-5.27592 -5.3463,-14.42087 0,-11.11462 7.8787,-17.16435 7.8787,-6.04973 22.37,-6.04973 7.1752,0 13.5063,1.05519 6.3311,1.05518 11.6774,3.16556 z"
           style="fill:#b04021;fill-opacity:1;stroke-width:0.264583"
           id="path888" />
      </g>
    </g>
  </g>
</svg>
